<svg xmlns="http://www.w3.org/2000/svg" width="35" height="35" viewBox="0 0 35 35">
  <g id="Group_5401" data-name="Group 5401" transform="translate(-49 -887)">
    <ellipse id="Ellipse_9" data-name="Ellipse 9" cx="17.5" cy="17.5" rx="17.5" ry="17.5" transform="translate(49 887)" fill="#ff5e3a"/>
    <path id="ic_pin_drop_24px" d="M16.085,6.447C16.085,3.994,13.806,2,11,2S5.92,3.994,5.92,6.447C5.92,9.783,11,14.6,11,14.6S16.085,9.783,16.085,6.447Zm-6.777,0A1.6,1.6,0,0,1,11,4.965,1.6,1.6,0,0,1,12.7,6.447,1.6,1.6,0,0,1,11,7.93,1.6,1.6,0,0,1,9.308,6.447Z" transform="translate(55.229 896.044)" fill="#fff"/>
  </g>
</svg>
