<svg xmlns="http://www.w3.org/2000/svg" width="35" height="35" viewBox="0 0 35 35">
  <g id="Group_5403" data-name="Group 5403" transform="translate(-58.516 -1654.682)">
    <circle id="Ellipse_63" data-name="Ellipse 63" cx="17.5" cy="17.5" r="17.5" transform="translate(58.516 1654.682)" fill="#ff5e3a"/>
    <path id="ic_assignment_24px" d="M15.444,2.5H12.193a2.354,2.354,0,0,0-4.387,0H4.556A1.533,1.533,0,0,0,3,4V14.5A1.533,1.533,0,0,0,4.556,16H15.444A1.533,1.533,0,0,0,17,14.5V4A1.533,1.533,0,0,0,15.444,2.5ZM10,2.5a.767.767,0,0,1,.778.75.778.778,0,0,1-1.556,0A.767.767,0,0,1,10,2.5ZM11.556,13H6.111V11.5h5.444Zm2.333-3H6.111V8.5h7.778Zm0-3H6.111V5.5h7.778Z" transform="translate(65.647 1663.818)" fill="#fff"/>
  </g>
</svg>
