<svg xmlns="http://www.w3.org/2000/svg" width="35" height="35" viewBox="0 0 35 35">
  <g id="Group_4584" data-name="Group 4584" transform="translate(0 -0.001)">
    <circle id="Ellipse_6" data-name="Ellipse 6" cx="17.5" cy="17.5" r="17.5" transform="translate(0 0.001)" fill="#ff5e3a"/>
    <path id="ic_notifications_active_24px" d="M6.058,3.655,5.02,2.61A7.634,7.634,0,0,0,2.03,8.346H3.481A6.182,6.182,0,0,1,6.058,3.655Zm8.991,4.692H16.5A7.681,7.681,0,0,0,13.51,2.61L12.48,3.655A6.219,6.219,0,0,1,15.049,8.346Zm-1.43.365a4.45,4.45,0,0,0-3.266-4.618V3.6a1.089,1.089,0,1,0-2.177,0v.5A4.437,4.437,0,0,0,4.911,8.712v3.654L3.46,13.827v.731H15.07v-.731l-1.451-1.462ZM9.265,16.75a1.263,1.263,0,0,0,.29-.029,1.441,1.441,0,0,0,1.154-1.432h-2.9A1.467,1.467,0,0,0,9.265,16.75Z" transform="translate(8.101 7.632)" fill="#fff"/>
  </g>
</svg>
