<svg xmlns="http://www.w3.org/2000/svg" width="35" height="35" viewBox="0 0 35 35">
  <g id="Group_4585" data-name="Group 4585" transform="translate(0 -0.001)">
    <circle id="Ellipse_9" data-name="Ellipse 9" cx="17.5" cy="17.5" r="17.5" transform="translate(0 0.001)" fill="#ff5e3a"/>
    <path id="ic_group_24px" d="M13.56,10.143a2.532,2.532,0,0,0,2.5-2.571,2.509,2.509,0,1,0-2.5,2.571Zm-6.7,0a2.532,2.532,0,0,0,2.5-2.571,2.509,2.509,0,1,0-2.5,2.571Zm0,1.714c-1.951,0-5.861,1-5.861,3V17H12.722V14.857C12.722,12.86,8.812,11.857,6.861,11.857Zm6.7,0c-.243,0-.519.017-.812.043a3.635,3.635,0,0,1,1.65,2.957V17h5.024V14.857C19.421,12.86,15.511,11.857,13.56,11.857Z" transform="translate(7.29 6.053)" fill="#fff"/>
  </g>
</svg>
